<?xml version="1.0" encoding="UTF-8" standalone="no"?>
<!DOCTYPE svg PUBLIC "-//W3C//DTD SVG 1.1//EN" "http://www.w3.org/Graphics/SVG/1.1/DTD/svg11.dtd">
<svg xmlns="http://www.w3.org/2000/svg" version="1.1" viewBox="0 0 567 754">
<g stroke-width="2.00" fill="none" stroke-linecap="butt">
<path stroke="#7c0b38" vector-effect="non-scaling-stroke" d="
  M 491.29 132.75
  Q 490.22 134.97 492.50 134.71"
/>
<path stroke="#7c0b38" vector-effect="non-scaling-stroke" d="
  M 524.00 136.71
  L 525.00 136.71"
/>
<path stroke="#dc6b93" vector-effect="non-scaling-stroke" d="
  M 523.73 182.18
  L 489.57 183.59
  A 1.26 1.24 0.4 0 1 488.26 182.28
  Q 489.26 164.17 490.11 145.57
  Q 490.28 141.78 490.03 139.98
  A 0.59 0.51 85.1 0 0 489.50 139.47
  L 417.56 142.28
  A 1.48 1.24 -0.4 0 0 416.14 143.49
  L 414.53 186.75
  A 0.85 0.81 89.7 0 1 413.76 187.56
  L 378.74 189.47
  A 1.88 1.81 -1.1 0 0 376.97 191.24
  L 373.88 311.25
  A 1.26 1.21 -1.7 0 0 375.25 312.49
  L 409.93 309.51
  A 0.28 0.24 89.2 0 1 410.19 309.80
  C 409.89 322.68 408.95 335.65 409.31 348.53
  A 0.54 0.41 87.5 0 0 409.76 349.07
  L 479.08 342.02
  A 0.93 0.87 -1.7 0 0 479.91 341.20
  L 481.95 303.16"
/>
<path stroke="#712884" vector-effect="non-scaling-stroke" d="
  M 481.95 303.16
  Q 482.35 303.23 482.66 303.08
  Q 483.14 302.87 483.51 302.84
  L 516.07 299.95
  A 1.17 1.16 88.9 0 0 517.13 298.84
  Q 518.31 276.02 519.72 252.75
  Q 519.77 252.03 520.50 250.54"
/>
<path stroke="#9a0042" vector-effect="non-scaling-stroke" d="
  M 533.00 250.29
  L 543.75 252.96"
/>
<path stroke="#9a0042" vector-effect="non-scaling-stroke" d="
  M 502.11 536.03
  L 504.42 503.79
  A 1.10 1.08 87.4 0 0 503.16 502.62
  L 483.25 506.04"
/>
<path stroke="#9a0042" vector-effect="non-scaling-stroke" d="
  M 471.36 506.52
  L 472.69 473.09
  A 0.70 0.69 88.6 0 0 471.94 472.36
  Q 462.73 473.14 453.97 475.05"
/>
<path stroke="#7c0b38" vector-effect="non-scaling-stroke" d="
  M 435.00 513.29
  L 432.50 513.71"
/>
<path stroke="#7c0b38" vector-effect="non-scaling-stroke" d="
  M 378.54 556.94
  Q 364.78 558.89 350.63 561.35
  C 349.17 561.60 348.12 561.07 347.88 559.59"
/>
<path stroke="#9a0042" vector-effect="non-scaling-stroke" d="
  M 347.88 559.59
  L 349.43 490.32
  A 0.47 0.45 88.9 0 0 348.95 489.84
  Q 340.85 490.26 333.88 491.99"
/>
<path stroke="#7c0b38" vector-effect="non-scaling-stroke" d="
  M 273.75 543.46
  L 273.28 573.01
  A 1.06 1.04 85.8 0 1 272.41 574.04
  Q 235.76 580.00 199.99 585.74
  Q 195.41 586.48 196.46 581.50"
/>
<path stroke="#9a0042" vector-effect="non-scaling-stroke" d="
  M 196.46 581.50
  L 196.01 550.49
  A 0.90 0.86 85.8 0 0 195.03 549.60
  L 186.08 550.92"
/>
<path stroke="#7c0b38" vector-effect="non-scaling-stroke" d="
  M 186.08 550.92
  Q 178.94 551.58 172.66 553.12"
/>
<path stroke="#9a0042" vector-effect="non-scaling-stroke" d="
  M 154.71 553.75
  L 153.83 518.18
  A 0.53 0.53 0.6 0 0 153.32 517.66
  Q 148.33 517.44 143.90 518.87"
/>
<path stroke="#b20952" vector-effect="non-scaling-stroke" d="
  M 115.50 522.54
  C 111.01 521.14 113.67 526.90 113.54 529.00"
/>
<path stroke="#b20952" vector-effect="non-scaling-stroke" d="
  M 113.71 560.50
  Q 112.67 560.69 112.19 561.68"
/>
<path stroke="#7c0b38" vector-effect="non-scaling-stroke" d="
  M 80.50 567.29
  L 74.04 568.18
  A 0.71 0.60 89.5 0 0 73.52 568.81
  L 73.44 569.64"
/>
<path stroke="#93013f" vector-effect="non-scaling-stroke" d="
  M 34.46 611.75
  Q 26.19 474.65 17.40 337.58
  C 16.68 326.34 16.71 310.57 15.27 301.00
  Q 14.61 296.61 9.51 289.41"
/>
<path stroke="#b20952" vector-effect="non-scaling-stroke" d="
  M 32.25 287.46
  C 34.40 287.64 46.27 288.11 46.00 286.04"
/>
<path stroke="#9a0042" vector-effect="non-scaling-stroke" d="
  M 48.38 286.12
  Q 53.26 287.28 55.97 291.71
  C 56.71 292.91 58.24 293.95 58.12 291.43
  Q 55.09 227.80 51.85 164.17
  C 51.60 159.34 51.89 156.11 46.74 154.04
  A 0.76 0.68 12.1 0 1 46.25 153.37
  Q 46.25 152.56 46.50 152.04"
/>
<path stroke="#9a0042" vector-effect="non-scaling-stroke" d="
  M 86.71 149.94
  L 96.67 154.08
  A 0.85 0.84 -80.0 0 0 97.84 153.25
  L 95.82 106.74
  A 1.50 1.48 -6.6 0 0 94.05 105.36
  Q 90.43 106.01 91.00 102.29"
/>
<path stroke="#9a0042" vector-effect="non-scaling-stroke" d="
  M 129.75 101.96
  L 141.11 103.55
  A 0.52 0.43 -87.9 0 0 141.59 103.00
  L 140.33 57.50
  A 1.78 1.69 89.3 0 0 138.65 55.77
  Q 137.95 55.77 136.67 54.30"
/>
<path stroke="#9a0042" vector-effect="non-scaling-stroke" d="
  M 218.46 52.49
  Q 224.59 53.82 231.32 53.82
  A 0.51 0.49 90.0 0 0 231.81 53.31
  L 231.48 6.13"
/>
<path stroke="#6c92bb" vector-effect="non-scaling-stroke" d="
  M 521.46 221.50
  L 451.17 226.17
  A 1.79 1.65 -0.9 0 0 449.51 227.75
  L 446.17 304.75
  A 1.19 1.13 -1.2 0 0 447.46 305.92
  L 481.95 303.16"
/>
<path stroke="#350b1e" vector-effect="non-scaling-stroke" d="
  M 347.88 559.59
  L 334.04 546.75"
/>
<path stroke="#350b1e" vector-effect="non-scaling-stroke" d="
  M 186.08 550.92
  Q 186.75 553.58 186.46 556.20
  C 185.83 561.94 186.22 573.18 192.72 575.92
  A 1.02 1.00 -86.5 0 1 193.30 576.59
  Q 194.09 579.59 196.46 581.50"
/>
<path stroke="#712884" vector-effect="non-scaling-stroke" d="
  M 273.42 321.64
  L 313.51 317.96
  A 0.56 0.54 -2.9 0 0 314.01 317.42
  L 314.83 235.21"
/>
<path stroke="#dc6b93" vector-effect="non-scaling-stroke" d="
  M 314.83 235.21
  L 315.45 193.31
  A 0.48 0.43 -1.3 0 0 314.94 192.87
  L 274.75 194.81
  A 1.31 1.19 88.8 0 1 273.50 193.50
  L 273.50 148.50
  A 0.66 0.49 89.2 0 0 272.99 147.83
  L 189.99 151.03
  A 1.46 1.32 88.6 0 0 188.72 152.50
  L 189.58 198.75
  A 0.62 0.53 -2.7 0 1 189.00 199.30
  L 145.75 201.69
  A 1.37 1.27 -2.5 0 0 144.45 203.00
  L 148.26 331.07
  A 1.61 1.42 86.9 0 0 149.81 332.64
  L 191.50 328.99
  A 0.52 0.50 87.4 0 1 192.04 329.50
  L 192.88 369.75
  A 1.13 1.03 86.9 0 0 194.01 370.87
  L 272.20 363.00
  A 1.45 1.25 87.9 0 0 273.33 361.58
  L 273.42 321.64"
/>
<path stroke="#6c92bb" vector-effect="non-scaling-stroke" d="
  M 314.83 235.21
  L 233.97 240.38
  A 0.60 0.59 1.7 0 0 233.41 240.90
  Q 233.18 243.01 233.21 249.25
  Q 233.39 286.97 233.86 324.69
  A 0.35 0.35 -2.9 0 0 234.25 325.04
  L 273.42 321.64"
/>
</g>
<path fill="#e1005c" d="
  M 491.29 132.75
  Q 490.22 134.97 492.50 134.71
  L 510.94 134.55
  A 0.45 0.40 -84.5 0 1 511.32 135.07
  L 511.24 135.49
  A 0.43 0.25 6.0 0 0 511.65 135.79
  L 524.00 136.71
  L 525.00 136.71
  C 527.06 138.06 526.21 139.37 526.17 141.32
  Q 525.75 161.88 523.73 182.18
  L 489.57 183.59
  A 1.26 1.24 0.4 0 1 488.26 182.28
  Q 489.26 164.17 490.11 145.57
  Q 490.28 141.78 490.03 139.98
  A 0.59 0.51 85.1 0 0 489.50 139.47
  L 417.56 142.28
  A 1.48 1.24 -0.4 0 0 416.14 143.49
  L 414.53 186.75
  A 0.85 0.81 89.7 0 1 413.76 187.56
  L 378.74 189.47
  A 1.88 1.81 -1.1 0 0 376.97 191.24
  L 373.88 311.25
  A 1.26 1.21 -1.7 0 0 375.25 312.49
  L 409.93 309.51
  A 0.28 0.24 89.2 0 1 410.19 309.80
  C 409.89 322.68 408.95 335.65 409.31 348.53
  A 0.54 0.41 87.5 0 0 409.76 349.07
  L 479.08 342.02
  A 0.93 0.87 -1.7 0 0 479.91 341.20
  L 481.95 303.16
  Q 482.35 303.23 482.66 303.08
  Q 483.14 302.87 483.51 302.84
  L 516.07 299.95
  A 1.17 1.16 88.9 0 0 517.13 298.84
  Q 518.31 276.02 519.72 252.75
  Q 519.77 252.03 520.50 250.54
  L 533.00 250.29
  L 543.75 252.96
  L 552.65 255.84
  Q 554.46 256.43 554.38 258.25
  Q 553.08 286.95 550.61 314.73
  C 550.01 321.44 550.05 329.00 549.44 336.19
  C 547.66 356.76 546.49 377.38 544.88 397.97
  Q 543.61 414.04 543.09 430.17
  C 543.07 430.74 542.73 431.35 542.43 431.82
  A 1.87 1.63 -32.6 0 0 542.16 432.74
  Q 542.21 439.12 541.71 445.48
  C 541.29 450.85 541.31 456.94 540.59 462.64
  C 539.83 468.67 540.24 474.62 539.48 480.69
  C 538.10 491.86 538.10 502.23 537.02 514.26
  Q 536.02 525.33 536.29 530.73
  A 0.67 0.66 79.5 0 1 535.84 531.39
  Q 532.00 532.64 528.26 533.26
  Q 515.15 535.46 502.11 536.03
  L 504.42 503.79
  A 1.10 1.08 87.4 0 0 503.16 502.62
  L 483.25 506.04
  C 478.91 506.51 475.27 508.25 471.36 506.52
  L 472.69 473.09
  A 0.70 0.69 88.6 0 0 471.94 472.36
  Q 462.73 473.14 453.97 475.05
  Q 447.67 475.97 441.25 476.29
  Q 439.62 476.37 439.53 478.29
  A 0.99 0.95 -17.1 0 1 439.11 479.04
  C 438.03 479.80 437.42 507.73 437.28 511.25
  Q 437.21 512.87 435.00 513.29
  L 432.50 513.71
  L 426.22 513.97
  A 1.31 1.03 14.9 0 0 425.40 514.32
  C 423.81 516.03 415.54 516.00 412.98 516.19
  A 1.59 1.17 -60.7 0 0 412.14 516.57
  C 410.86 517.71 406.86 517.41 405.29 517.91
  A 2.39 2.30 -8.0 0 0 403.65 520.00
  L 402.13 550.92
  Q 402.00 553.62 399.41 553.78
  C 395.63 554.03 392.06 555.35 388.16 555.59
  Q 383.43 555.88 378.54 556.94
  Q 364.78 558.89 350.63 561.35
  C 349.17 561.60 348.12 561.07 347.88 559.59
  L 349.43 490.32
  A 0.47 0.45 88.9 0 0 348.95 489.84
  Q 340.85 490.26 333.88 491.99
  Q 308.57 495.26 284.25 498.84
  Q 279.27 499.57 274.15 501.15
  A 0.67 0.66 81.9 0 0 273.68 501.79
  L 273.75 543.46
  L 273.28 573.01
  A 1.06 1.04 85.8 0 1 272.41 574.04
  Q 235.76 580.00 199.99 585.74
  Q 195.41 586.48 196.46 581.50
  L 196.01 550.49
  A 0.90 0.86 85.8 0 0 195.03 549.60
  L 186.08 550.92
  Q 178.94 551.58 172.66 553.12
  Q 164.99 553.89 157.93 555.58
  A 1.06 0.94 -85.2 0 0 157.23 556.25
  L 156.98 556.99
  Q 156.77 557.62 156.39 556.91
  L 154.71 553.75
  L 153.83 518.18
  A 0.53 0.53 0.6 0 0 153.32 517.66
  Q 148.33 517.44 143.90 518.87
  Q 139.02 519.54 134.30 519.95
  C 128.24 520.49 121.87 522.04 115.50 522.54
  C 111.01 521.14 113.67 526.90 113.54 529.00
  Q 114.21 544.75 113.71 560.50
  Q 112.67 560.69 112.19 561.68
  C 105.81 563.66 98.69 564.12 92.77 565.20
  C 88.75 565.93 84.30 565.87 80.50 567.29
  L 74.04 568.18
  A 0.71 0.60 89.5 0 0 73.52 568.81
  L 73.44 569.64
  L 74.38 605.35
  Q 74.44 607.73 72.08 607.61
  C 70.60 607.53 63.99 607.57 62.56 608.98
  A 0.68 0.39 -44.5 0 1 61.81 609.18
  L 61.69 609.06
  A 0.57 0.21 -13.9 0 0 61.25 609.01
  L 38.77 612.40
  Q 38.30 612.48 37.87 612.78
  Q 35.52 614.44 34.46 611.75
  Q 26.19 474.65 17.40 337.58
  C 16.68 326.34 16.71 310.57 15.27 301.00
  Q 14.61 296.61 9.51 289.41
  C 14.89 286.84 25.30 287.98 32.25 287.46
  C 34.40 287.64 46.27 288.11 46.00 286.04
  L 48.38 286.12
  Q 53.26 287.28 55.97 291.71
  C 56.71 292.91 58.24 293.95 58.12 291.43
  Q 55.09 227.80 51.85 164.17
  C 51.60 159.34 51.89 156.11 46.74 154.04
  A 0.76 0.68 12.1 0 1 46.25 153.37
  Q 46.25 152.56 46.50 152.04
  L 86.71 149.94
  L 96.67 154.08
  A 0.85 0.84 -80.0 0 0 97.84 153.25
  L 95.82 106.74
  A 1.50 1.48 -6.6 0 0 94.05 105.36
  Q 90.43 106.01 91.00 102.29
  L 129.75 101.96
  L 141.11 103.55
  A 0.52 0.43 -87.9 0 0 141.59 103.00
  L 140.33 57.50
  A 1.78 1.69 89.3 0 0 138.65 55.77
  Q 137.95 55.77 136.67 54.30
  Q 139.01 54.41 140.77 53.44
  Q 141.23 53.18 141.69 53.18
  L 218.46 52.49
  Q 224.59 53.82 231.32 53.82
  A 0.51 0.49 90.0 0 0 231.81 53.31
  L 231.48 6.13
  L 399.21 6.19
  A 0.54 0.52 88.2 0 1 399.73 6.70
  C 400.56 22.07 399.05 35.37 399.72 49.76
  A 0.56 0.55 -0.5 0 0 400.26 50.28
  C 418.43 51.11 436.72 49.97 454.95 50.55
  A 1.18 1.07 -16.9 0 1 455.78 50.94
  C 458.14 53.81 457.20 58.69 456.89 61.93
  C 455.93 71.96 455.85 81.91 456.10 92.58
  A 1.27 1.12 88.6 0 0 457.25 93.82
  Q 473.03 93.39 488.75 94.68
  A 1.23 0.44 0.1 0 1 489.71 95.03
  Q 490.30 96.09 491.49 96.01
  A 0.77 0.51 88.7 0 1 492.03 96.79
  C 492.06 108.80 491.56 120.79 491.29 132.75
  Z
  M 273.42 321.64
  L 313.51 317.96
  A 0.56 0.54 -2.9 0 0 314.01 317.42
  L 314.83 235.21
  L 315.45 193.31
  A 0.48 0.43 -1.3 0 0 314.94 192.87
  L 274.75 194.81
  A 1.31 1.19 88.8 0 1 273.50 193.50
  L 273.50 148.50
  A 0.66 0.49 89.2 0 0 272.99 147.83
  L 189.99 151.03
  A 1.46 1.32 88.6 0 0 188.72 152.50
  L 189.58 198.75
  A 0.62 0.53 -2.7 0 1 189.00 199.30
  L 145.75 201.69
  A 1.37 1.27 -2.5 0 0 144.45 203.00
  L 148.26 331.07
  A 1.61 1.42 86.9 0 0 149.81 332.64
  L 191.50 328.99
  A 0.52 0.50 87.4 0 1 192.04 329.50
  L 192.88 369.75
  A 1.13 1.03 86.9 0 0 194.01 370.87
  L 272.20 363.00
  A 1.45 1.25 87.9 0 0 273.33 361.58
  L 273.42 321.64
  Z"
/>
<path fill="#530028" d="
  M 231.48 6.13
  L 231.81 53.31
  A 0.51 0.49 -90.0 0 1 231.32 53.82
  Q 224.59 53.82 218.46 52.49
  L 218.88 14.30
  A 2.03 1.07 45.5 0 0 218.59 13.34
  Q 217.60 11.59 218.06 9.50
  A 0.65 0.64 8.6 0 1 218.75 9.00
  Q 220.30 9.12 219.99 7.50
  A 0.76 0.37 -6.3 0 1 220.74 7.03
  L 231.48 6.13
  Z"
/>
<path fill="#530028" d="
  M 136.67 54.30
  Q 137.95 55.77 138.65 55.77
  A 1.78 1.69 89.3 0 1 140.33 57.50
  L 141.59 103.00
  A 0.52 0.43 -87.9 0 1 141.11 103.55
  L 129.75 101.96
  C 132.80 100.50 130.89 95.13 130.83 92.75
  Q 130.40 77.53 130.62 62.30
  A 1.15 0.80 27.9 0 0 130.22 61.53
  C 129.01 60.45 131.10 58.08 130.74 56.14
  A 0.83 0.73 3.2 0 0 130.14 55.55
  Q 128.97 55.25 129.65 54.71
  C 130.15 54.31 135.77 54.33 136.67 54.30
  Z"
/>
<path fill="#530028" d="
  M 91.00 102.29
  Q 90.43 106.01 94.05 105.36
  A 1.50 1.48 -6.6 0 1 95.82 106.74
  L 97.84 153.25
  A 0.85 0.84 -80.0 0 1 96.67 154.08
  L 86.71 149.94
  Q 87.29 148.92 88.47 148.57
  A 0.67 0.62 -9.8 0 0 88.94 147.95
  Q 88.56 129.91 87.56 111.94
  Q 87.37 108.60 87.90 103.45
  A 0.71 0.66 87.4 0 1 88.43 102.83
  L 91.00 102.29
  Z"
/>
<path fill="#161614" d="
  M 491.29 132.75
  L 492.50 134.71
  Q 490.22 134.97 491.29 132.75
  Z"
/>
<path fill="#161614" d="
  M 525.00 136.71
  L 524.00 136.71
  Q 524.57 133.15 525.00 136.71
  Z"
/>
<path fill="#d7d5c9" d="
  M 523.73 182.18
  L 521.46 221.50
  L 451.17 226.17
  A 1.79 1.65 -0.9 0 0 449.51 227.75
  L 446.17 304.75
  A 1.19 1.13 -1.2 0 0 447.46 305.92
  L 481.95 303.16
  L 479.91 341.20
  A 0.93 0.87 -1.7 0 1 479.08 342.02
  L 409.76 349.07
  A 0.54 0.41 87.5 0 1 409.31 348.53
  C 408.95 335.65 409.89 322.68 410.19 309.80
  A 0.28 0.24 89.2 0 0 409.93 309.51
  L 375.25 312.49
  A 1.26 1.21 -1.7 0 1 373.88 311.25
  L 376.97 191.24
  A 1.88 1.81 -1.1 0 1 378.74 189.47
  L 413.76 187.56
  A 0.85 0.81 89.7 0 0 414.53 186.75
  L 416.14 143.49
  A 1.48 1.24 -0.4 0 1 417.56 142.28
  L 489.50 139.47
  A 0.59 0.51 85.1 0 1 490.03 139.98
  Q 490.28 141.78 490.11 145.57
  Q 489.26 164.17 488.26 182.28
  A 1.26 1.24 0.4 0 0 489.57 183.59
  L 523.73 182.18
  Z"
/>
<path fill="#d7d5c9" d="
  M 314.83 235.21
  L 233.97 240.38
  A 0.60 0.59 1.7 0 0 233.41 240.90
  Q 233.18 243.01 233.21 249.25
  Q 233.39 286.97 233.86 324.69
  A 0.35 0.35 -2.9 0 0 234.25 325.04
  L 273.42 321.64
  L 273.33 361.58
  A 1.45 1.25 87.9 0 1 272.20 363.00
  L 194.01 370.87
  A 1.13 1.03 86.9 0 1 192.88 369.75
  L 192.04 329.50
  A 0.52 0.50 87.4 0 0 191.50 328.99
  L 149.81 332.64
  A 1.61 1.42 86.9 0 1 148.26 331.07
  L 144.45 203.00
  A 1.37 1.27 -2.5 0 1 145.75 201.69
  L 189.00 199.30
  A 0.62 0.53 -2.7 0 0 189.58 198.75
  L 188.72 152.50
  A 1.46 1.32 88.6 0 1 189.99 151.03
  L 272.99 147.83
  A 0.66 0.49 89.2 0 1 273.50 148.50
  L 273.50 193.50
  A 1.31 1.19 88.8 0 0 274.75 194.81
  L 314.94 192.87
  A 0.48 0.43 -1.3 0 1 315.45 193.31
  L 314.83 235.21
  Z"
/>
<path fill="#530028" d="
  M 46.50 152.04
  Q 46.25 152.56 46.25 153.37
  A 0.76 0.68 12.1 0 0 46.74 154.04
  C 51.89 156.11 51.60 159.34 51.85 164.17
  Q 55.09 227.80 58.12 291.43
  C 58.24 293.95 56.71 292.91 55.97 291.71
  Q 53.26 287.28 48.38 286.12
  Q 48.87 286.03 49.01 285.25
  A 0.49 0.48 -81.3 0 1 49.55 284.85
  Q 50.92 285.01 50.84 283.51
  C 50.56 278.23 50.83 272.91 50.41 268.18
  C 48.96 251.74 48.94 235.44 47.60 218.89
  C 46.82 209.24 46.92 199.49 45.92 189.93
  C 44.63 177.75 44.96 165.52 43.94 153.29
  A 1.00 0.83 72.2 0 1 44.27 152.47
  Q 45.15 151.80 46.50 152.04
  Z"
/>
<path fill="#004fac" d="
  M 521.46 221.50
  Q 520.92 235.80 519.81 250.06
  Q 519.77 250.54 520.50 250.54
  Q 519.77 252.03 519.72 252.75
  Q 518.31 276.02 517.13 298.84
  A 1.17 1.16 88.9 0 1 516.07 299.95
  L 483.51 302.84
  Q 483.14 302.87 482.66 303.08
  Q 482.35 303.23 481.95 303.16
  L 447.46 305.92
  A 1.19 1.13 -1.2 0 1 446.17 304.75
  L 449.51 227.75
  A 1.79 1.65 -0.9 0 1 451.17 226.17
  L 521.46 221.50
  Z"
/>
<path fill="#004fac" d="
  M 314.83 235.21
  L 314.01 317.42
  A 0.56 0.54 -2.9 0 1 313.51 317.96
  L 273.42 321.64
  L 234.25 325.04
  A 0.35 0.35 -2.9 0 1 233.86 324.69
  Q 233.39 286.97 233.21 249.25
  Q 233.18 243.01 233.41 240.90
  A 0.60 0.59 1.7 0 1 233.97 240.38
  L 314.83 235.21
  Z"
/>
<path fill="#530028" d="
  M 533.00 250.29
  Q 538.68 250.43 543.75 252.96
  L 533.00 250.29
  Z"
/>
<path fill="#831148" d="
  M 46.00 286.04
  C 46.27 288.11 34.40 287.64 32.25 287.46
  L 46.00 286.04
  Z"
/>
<path fill="#450222" d="
  M 9.51 289.41
  Q 14.61 296.61 15.27 301.00
  C 16.71 310.57 16.68 326.34 17.40 337.58
  Q 26.19 474.65 34.46 611.75
  Q 33.33 609.54 32.74 605.01
  C 32.44 602.75 30.30 600.30 29.56 598.29
  Q 28.23 594.64 28.09 591.25
  C 26.18 547.34 21.74 503.62 20.38 459.68
  Q 20.26 455.62 19.56 448.47
  C 17.62 428.60 17.92 411.05 15.71 388.66
  Q 15.02 381.58 14.51 373.18
  C 14.09 366.26 13.16 359.32 12.92 352.51
  Q 12.58 342.77 11.75 333.06
  C 10.86 322.62 10.84 311.53 9.81 300.75
  A 1.79 1.03 69.6 0 1 9.98 299.75
  Q 11.80 296.79 9.70 294.00
  A 1.32 0.29 56.3 0 0 8.98 293.31
  Q 7.22 292.92 7.99 291.23
  A 0.84 0.69 12.4 0 1 8.79 290.82
  Q 10.22 290.94 9.51 289.41
  Z"
/>
<path fill="#530028" d="
  M 471.36 506.52
  Q 469.38 505.30 467.50 503.48
  C 463.93 500.05 459.28 497.54 455.18 494.76
  A 0.95 0.94 -73.0 0 1 454.77 493.98
  C 454.76 491.54 455.27 475.78 453.97 475.05
  Q 462.73 473.14 471.94 472.36
  A 0.70 0.69 88.6 0 1 472.69 473.09
  L 471.36 506.52
  Z"
/>
<path fill="#530028" d="
  M 347.88 559.59
  L 334.04 546.75
  L 333.88 491.99
  Q 340.85 490.26 348.95 489.84
  A 0.47 0.45 88.9 0 1 349.43 490.32
  L 347.88 559.59
  Z"
/>
<path fill="#530028" d="
  M 502.11 536.03
  Q 499.81 534.91 499.35 532.75
  A 1.17 1.02 -84.2 0 0 498.82 532.00
  Q 494.24 529.48 488.20 525.31
  C 484.15 522.51 484.14 518.10 485.04 513.23
  C 485.57 510.37 489.38 507.04 483.25 506.04
  L 503.16 502.62
  A 1.10 1.08 87.4 0 1 504.42 503.79
  L 502.11 536.03
  Z"
/>
<path fill="#161614" d="
  M 435.00 513.29
  Q 433.90 514.84 432.50 513.71
  L 435.00 513.29
  Z"
/>
<path fill="#530028" d="
  M 154.71 553.75
  L 153.62 549.74
  A 0.66 0.56 -8.3 0 0 152.97 549.33
  C 150.91 549.41 149.58 545.53 148.70 544.00
  A 1.29 1.09 -2.5 0 0 148.01 543.47
  L 147.06 543.17
  A 1.03 0.43 -89.9 0 1 146.69 542.28
  C 146.52 537.93 145.28 534.16 145.42 529.75
  Q 145.60 524.24 143.90 518.87
  Q 148.33 517.44 153.32 517.66
  A 0.53 0.53 0.6 0 1 153.83 518.18
  L 154.71 553.75
  Z"
/>
<path fill="#831148" d="
  M 115.50 522.54
  L 114.76 522.82
  A 0.98 0.67 88.5 0 0 114.28 523.56
  L 113.54 529.00
  C 113.67 526.90 111.01 521.14 115.50 522.54
  Z"
/>
<path fill="#161614" d="
  M 334.04 546.75
  L 347.88 559.59
  C 348.12 561.07 349.17 561.60 350.63 561.35
  Q 364.78 558.89 378.54 556.94
  L 396.48 573.56
  A 1.79 1.79 61.4 0 0 398.00 574.01
  L 421.25 569.97
  A 1.85 1.74 60.9 0 1 422.79 570.46
  L 472.57 617.93
  Q 473.47 618.79 472.24 618.92
  L 449.76 621.33
  Q 449.06 621.41 449.57 621.94
  L 474.91 648.58
  Q 475.73 649.44 474.49 649.67
  L 449.30 654.28
  Q 448.70 654.39 449.16 654.84
  L 463.95 669.29
  Q 464.43 669.76 463.82 669.85
  L 435.09 674.24
  Q 434.00 674.40 434.80 675.20
  L 449.44 689.81
  Q 450.06 690.42 449.22 690.60
  L 406.44 699.94
  Q 405.66 700.11 406.28 700.72
  L 420.74 714.76
  Q 422.11 716.09 420.25 716.48
  L 300.99 741.68
  A 1.13 0.74 -21.1 0 1 300.02 741.47
  L 286.26 725.74
  A 0.83 0.54 -19.9 0 0 285.56 725.58
  L 222.25 736.73
  A 0.96 0.79 -19.7 0 1 221.36 736.41
  L 210.21 719.78
  A 2.33 2.31 -22.9 0 0 207.81 718.81
  L 178.76 725.04
  A 1.04 0.96 -19.3 0 1 177.67 724.57
  L 168.21 707.55
  A 0.67 0.58 -19.6 0 0 167.51 707.28
  L 137.99 713.70
  A 0.92 0.71 -18.6 0 1 137.07 713.38
  L 120.69 684.06
  A 2.18 2.05 -18.1 0 0 118.51 683.04
  L 93.75 686.78
  A 0.88 0.55 71.3 0 1 93.04 686.20
  L 70.42 631.82
  A 0.60 0.57 -19.6 0 1 70.81 631.04
  L 93.81 624.31
  A 0.43 0.35 68.4 0 0 93.99 623.75
  L 83.04 599.98
  A 0.39 0.31 71.7 0 1 83.24 599.45
  L 109.55 595.99
  A 0.48 0.33 -13.1 0 0 109.99 595.50
  L 105.17 584.89
  A 0.57 0.57 -16.6 0 1 105.57 584.09
  L 129.25 579.00
  A 0.59 0.56 -15.2 0 0 129.70 578.27
  L 126.39 568.16
  A 0.58 0.56 -12.5 0 1 126.88 567.43
  Q 146.81 564.77 166.69 562.22
  Q 169.21 561.90 172.43 562.03
  A 1.60 1.59 -82.0 0 0 174.04 560.81
  Q 175.01 556.72 172.66 553.12
  Q 178.94 551.58 186.08 550.92
  Q 186.75 553.58 186.46 556.20
  C 185.83 561.94 186.22 573.18 192.72 575.92
  A 1.02 1.00 -86.5 0 1 193.30 576.59
  Q 194.09 579.59 196.46 581.50
  Q 195.41 586.48 199.99 585.74
  Q 235.76 580.00 272.41 574.04
  A 1.06 1.04 85.8 0 0 273.28 573.01
  L 273.75 543.46
  Q 289.60 543.16 305.47 543.25
  C 309.27 543.27 312.55 545.78 315.64 547.74
  A 1.62 1.54 60.0 0 0 316.55 548.01
  Q 325.34 547.91 334.04 546.75
  Z"
/>
<path fill="#530028" d="
  M 196.46 581.50
  Q 194.09 579.59 193.30 576.59
  A 1.02 1.00 -86.5 0 0 192.72 575.92
  C 186.22 573.18 185.83 561.94 186.46 556.20
  Q 186.75 553.58 186.08 550.92
  L 195.03 549.60
  A 0.90 0.86 85.8 0 1 196.01 550.49
  L 196.46 581.50
  Z"
/>
<path fill="#831148" d="
  M 113.71 560.50
  Q 114.88 562.30 113.26 563.22
  A 0.31 0.27 75.1 0 1 112.85 562.94
  Q 112.81 562.22 112.19 561.68
  Q 112.67 560.69 113.71 560.50
  Z"
/>
<path fill="#161614" d="
  M 80.50 567.29
  L 73.44 569.64
  L 73.52 568.81
  A 0.71 0.60 89.5 0 1 74.04 568.18
  L 80.50 567.29
  Z"
/>
</svg>
